<svg xmlns="http://www.w3.org/2000/svg" xmlns:xlink="http://www.w3.org/1999/xlink" width="500" zoomAndPan="magnify" viewBox="0 0 375 374.999991" height="500" preserveAspectRatio="xMidYMid meet" version="1.0"><path fill="#000000" d="M 298.828125 351.5625 L 76.171875 351.5625 C 59.765625 351.5625 46.875 338.671875 46.875 322.265625 C 46.875 305.859375 59.765625 292.96875 76.171875 292.96875 L 298.828125 292.96875 C 315.234375 292.96875 328.125 305.859375 328.125 322.265625 C 328.125 338.671875 315.234375 351.5625 298.828125 351.5625 Z M 76.171875 316.40625 C 72.65625 316.40625 70.3125 318.75 70.3125 322.265625 C 70.3125 325.78125 72.65625 328.125 76.171875 328.125 L 298.828125 328.125 C 302.34375 328.125 304.6875 325.78125 304.6875 322.265625 C 304.6875 318.75 302.34375 316.40625 298.828125 316.40625 Z M 76.171875 316.40625 " fill-opacity="1" fill-rule="nonzero"/><path fill="#000000" d="M 70.3125 316.40625 C 63.28125 316.40625 58.59375 311.71875 58.59375 304.6875 C 58.59375 288.28125 52.734375 277.734375 44.53125 264.84375 C 33.984375 248.4375 23.4375 230.859375 23.4375 199.21875 C 23.4375 140.625 100.78125 117.1875 142.96875 105.46875 L 148.828125 103.125 C 168.75 97.265625 174.609375 91.40625 175.78125 90.234375 C 176.953125 85.546875 181.640625 82.03125 187.5 82.03125 C 194.53125 82.03125 199.21875 86.71875 199.21875 93.75 C 199.21875 100.78125 193.359375 114.84375 155.859375 126.5625 L 150 128.90625 C 116.015625 138.28125 46.875 158.203125 46.875 199.21875 C 46.875 223.828125 55.078125 237.890625 64.453125 251.953125 C 72.65625 267.1875 82.03125 281.25 82.03125 304.6875 C 82.03125 311.71875 77.34375 316.40625 70.3125 316.40625 Z M 175.78125 93.75 Z M 175.78125 93.75 " fill-opacity="1" fill-rule="nonzero"/><path fill="#000000" d="M 304.6875 316.40625 C 297.65625 316.40625 292.96875 311.71875 292.96875 304.6875 C 292.96875 281.25 302.34375 266.015625 310.546875 251.953125 C 319.921875 237.890625 328.125 223.828125 328.125 199.21875 C 328.125 158.203125 258.984375 138.28125 225 127.734375 L 219.140625 125.390625 C 181.640625 114.84375 175.78125 100.78125 175.78125 93.75 C 175.78125 86.71875 180.46875 82.03125 187.5 82.03125 C 193.359375 82.03125 198.046875 85.546875 199.21875 90.234375 C 200.390625 91.40625 206.25 97.265625 226.171875 103.125 L 232.03125 105.46875 C 274.21875 117.1875 351.5625 140.625 351.5625 199.21875 C 351.5625 230.859375 341.015625 248.4375 330.46875 264.84375 C 322.265625 277.734375 316.40625 288.28125 316.40625 304.6875 C 316.40625 311.71875 311.71875 316.40625 304.6875 316.40625 Z M 199.21875 93.75 Z M 199.21875 93.75 Z M 199.21875 93.75 " fill-opacity="1" fill-rule="nonzero"/><path fill="#000000" d="M 191.015625 92.578125 C 182.8125 92.578125 173.4375 89.0625 167.578125 83.203125 C 154.6875 71.484375 152.34375 52.734375 161.71875 38.671875 C 169.921875 23.4375 187.5 17.578125 203.90625 24.609375 C 209.765625 26.953125 213.28125 33.984375 210.9375 39.84375 C 208.59375 45.703125 201.5625 49.21875 195.703125 46.875 C 191.015625 44.53125 183.984375 46.875 181.640625 51.5625 C 178.125 56.25 179.296875 62.109375 183.984375 66.796875 C 188.671875 70.3125 194.53125 71.484375 199.21875 67.96875 C 203.90625 64.453125 212.109375 65.625 215.625 70.3125 C 219.140625 75 217.96875 83.203125 213.28125 86.71875 C 205.078125 90.234375 198.046875 92.578125 191.015625 92.578125 Z M 191.015625 92.578125 " fill-opacity="1" fill-rule="nonzero"/></svg>