<svg xmlns="http://www.w3.org/2000/svg" xmlns:xlink="http://www.w3.org/1999/xlink" width="500" zoomAndPan="magnify" viewBox="0 0 375 374.999991" height="500" preserveAspectRatio="xMidYMid meet" version="1.0"><path fill="#000000" d="M 187.628906 16.132812 C 191.890625 20.769531 197.222656 24.730469 202.703125 28.390625 C 214.292969 36.121094 227.8125 43.136719 239.199219 51.070312 C 250.585938 59.003906 259.378906 67.648438 262.875 77.695312 C 266.046875 86.824219 265.625 98.03125 257.238281 114.324219 C 234.140625 107.003906 210.953125 103.398438 187.769531 103.476562 C 164.570312 103.554688 141.371094 107.359375 118.300781 114.605469 C 109.773438 98.160156 109.34375 86.875 112.523438 77.695312 C 116.003906 67.648438 124.832031 59 136.195312 51.070312 C 147.558594 43.140625 161.121094 36.121094 172.691406 28.390625 C 178.136719 24.75 183.382812 20.742188 187.628906 16.132812 Z M 187.628906 16.132812 " fill-opacity="1" fill-rule="evenodd"/><path fill="#000000" d="M 187.765625 121.226562 C 216.933594 121.128906 246.144531 127.425781 275.554688 140.386719 L 275.554688 315.921875 L 227.363281 315.921875 L 227.363281 201.246094 C 227.363281 188.878906 222.316406 178.472656 214.679688 171.804688 C 207.046875 165.132812 197.28125 162.082031 187.625 162.082031 C 177.96875 162.082031 168.207031 165.132812 160.570312 171.804688 C 152.9375 178.472656 147.890625 188.878906 147.890625 201.246094 L 147.890625 315.921875 L 99.980469 315.921875 L 99.980469 140.527344 C 129.457031 127.886719 158.601562 121.328125 187.765625 121.226562 Z M 187.765625 121.226562 " fill-opacity="1" fill-rule="evenodd"/><path fill="#000000" d="M 187.628906 180.117188 C 193.34375 180.117188 198.949219 182.066406 202.847656 185.46875 C 206.742188 188.871094 209.328125 193.464844 209.328125 201.246094 L 209.328125 315.921875 L 165.925781 315.921875 L 165.925781 201.246094 C 165.925781 193.464844 168.515625 188.871094 172.410156 185.46875 C 176.304688 182.066406 181.910156 180.117188 187.628906 180.117188 Z M 187.628906 180.117188 " fill-opacity="1" fill-rule="evenodd"/><path fill="#000000" d="M 38.828125 333.957031 L 336.710938 333.957031 L 336.710938 341.84375 L 38.828125 341.84375 Z M 38.828125 333.957031 " fill-opacity="1" fill-rule="evenodd"/><path fill="#000000" d="M 6.417969 359.878906 L 368.976562 359.878906 L 368.976562 368.046875 L 6.417969 368.046875 Z M 6.417969 359.878906 " fill-opacity="1" fill-rule="evenodd"/></svg>